<svg width="594" height="74" viewBox="0 0 594 74" fill="none" xmlns="http://www.w3.org/2000/svg">
<path d="M100.6 57V15H115.06C117.32 15 119.36 15.56 121.18 16.68C123.02 17.8 124.48 19.31 125.56 21.21C126.66 23.11 127.21 25.21 127.21 27.51C127.21 29.85 126.65 31.97 125.53 33.87C124.43 35.75 122.96 37.25 121.12 38.37C119.28 39.49 117.26 40.05 115.06 40.05H106.84V57H100.6ZM106.84 33.81H114.43C115.63 33.81 116.72 33.51 117.7 32.91C118.7 32.31 119.49 31.51 120.07 30.51C120.67 29.51 120.97 28.38 120.97 27.12C120.97 25.86 120.67 24.73 120.07 23.73C119.49 22.71 118.7 21.91 117.7 21.33C116.72 20.73 115.63 20.43 114.43 20.43H106.84V33.81ZM131.538 42.66V27H137.778V42.54C137.778 44.24 138.128 45.79 138.828 47.19C139.548 48.57 140.518 49.68 141.738 50.52C142.978 51.34 144.388 51.75 145.968 51.75C147.508 51.75 148.858 51.34 150.018 50.52C151.198 49.68 152.108 48.57 152.748 47.19C153.408 45.79 153.738 44.24 153.738 42.54V27H159.978V57H153.738V52.92C152.698 54.42 151.438 55.61 149.958 56.49C148.478 57.37 146.808 57.81 144.948 57.81C142.268 57.81 139.918 57.13 137.898 55.77C135.898 54.39 134.348 52.55 133.248 50.25C132.148 47.95 131.578 45.42 131.538 42.66ZM182.763 26.16C185.683 26.16 188.333 26.87 190.713 28.29C193.113 29.71 195.023 31.62 196.443 34.02C197.863 36.4 198.573 39.05 198.573 41.97C198.573 44.15 198.163 46.2 197.343 48.12C196.523 50.02 195.383 51.7 193.923 53.16C192.483 54.6 190.803 55.73 188.883 56.55C186.983 57.37 184.943 57.78 182.763 57.78C180.663 57.78 178.823 57.3 177.243 56.34C175.683 55.36 174.403 54.11 173.403 52.59V57H167.163V12H173.403V31.35C174.403 29.81 175.683 28.56 177.243 27.6C178.823 26.64 180.663 26.16 182.763 26.16ZM182.703 51.72C184.443 51.72 186.033 51.28 187.473 50.4C188.913 49.52 190.053 48.34 190.893 46.86C191.753 45.38 192.183 43.75 192.183 41.97C192.183 40.15 191.753 38.5 190.893 37.02C190.033 35.54 188.883 34.37 187.443 33.51C186.003 32.63 184.423 32.19 182.703 32.19C180.963 32.19 179.433 32.63 178.113 33.51C176.793 34.39 175.763 35.57 175.023 37.05C174.283 38.53 173.913 40.17 173.913 41.97C173.913 43.77 174.283 45.41 175.023 46.89C175.763 48.37 176.793 49.55 178.113 50.43C179.433 51.29 180.963 51.72 182.703 51.72ZM203.616 57V12H209.826V57H203.616ZM217.377 27H223.617V57H217.377V27ZM220.527 22.05C219.587 22.05 218.797 21.74 218.157 21.12C217.517 20.5 217.197 19.72 217.197 18.78C217.197 17.86 217.517 17.09 218.157 16.47C218.797 15.83 219.587 15.51 220.527 15.51C221.447 15.51 222.227 15.83 222.867 16.47C223.507 17.09 223.827 17.86 223.827 18.78C223.827 19.72 223.507 20.5 222.867 21.12C222.227 21.74 221.447 22.05 220.527 22.05ZM252.67 48.48L258.25 51.51C256.89 53.41 255.16 54.93 253.06 56.07C250.98 57.21 248.72 57.78 246.28 57.78C243.52 57.78 241 57.07 238.72 55.65C236.46 54.23 234.65 52.33 233.29 49.95C231.95 47.55 231.28 44.9 231.28 42C231.28 39.8 231.67 37.75 232.45 35.85C233.23 33.93 234.3 32.25 235.66 30.81C237.04 29.35 238.64 28.21 240.46 27.39C242.28 26.57 244.22 26.16 246.28 26.16C248.72 26.16 250.98 26.73 253.06 27.87C255.16 29.01 256.89 30.54 258.25 32.46L252.67 35.49C251.83 34.49 250.85 33.73 249.73 33.21C248.61 32.67 247.46 32.4 246.28 32.4C244.64 32.4 243.15 32.85 241.81 33.75C240.49 34.63 239.44 35.8 238.66 37.26C237.9 38.7 237.52 40.28 237.52 42C237.52 43.7 237.91 45.28 238.69 46.74C239.47 48.18 240.52 49.34 241.84 50.22C243.18 51.1 244.66 51.54 246.28 51.54C247.52 51.54 248.7 51.26 249.82 50.7C250.94 50.14 251.89 49.4 252.67 48.48ZM262.729 27H268.969V57H262.729V27ZM265.879 22.05C264.939 22.05 264.149 21.74 263.509 21.12C262.869 20.5 262.549 19.72 262.549 18.78C262.549 17.86 262.869 17.09 263.509 16.47C264.149 15.83 264.939 15.51 265.879 15.51C266.799 15.51 267.579 15.83 268.219 16.47C268.859 17.09 269.179 17.86 269.179 18.78C269.179 19.72 268.859 20.5 268.219 21.12C267.579 21.74 266.799 22.05 265.879 22.05ZM294.272 33.24H287.972L287.942 57H281.702L281.732 33.24H276.962V27H281.732L281.702 17.58H287.942L287.972 27H294.272V33.24ZM319.255 27H325.915L309.475 72H302.845L308.275 57L297.505 27H304.315L311.395 48.45L319.255 27Z" fill="#505050"/>
<path d="M331.928 57V15H357.998V21.24H338.168V31.38H354.128V37.62H338.168V50.76H357.998V57H331.928ZM361.724 57L372.704 41.94L361.784 26.94H369.494L376.544 36.6L383.624 26.94H391.304L380.414 41.94L391.394 57H383.684L376.544 47.22L369.434 57H361.724ZM414.272 48.48L419.852 51.51C418.492 53.41 416.762 54.93 414.662 56.07C412.582 57.21 410.322 57.78 407.882 57.78C405.122 57.78 402.602 57.07 400.322 55.65C398.062 54.23 396.252 52.33 394.892 49.95C393.552 47.55 392.882 44.9 392.882 42C392.882 39.8 393.272 37.75 394.052 35.85C394.832 33.93 395.902 32.25 397.262 30.81C398.642 29.35 400.242 28.21 402.062 27.39C403.882 26.57 405.822 26.16 407.882 26.16C410.322 26.16 412.582 26.73 414.662 27.87C416.762 29.01 418.492 30.54 419.852 32.46L414.272 35.49C413.432 34.49 412.452 33.73 411.332 33.21C410.212 32.67 409.062 32.4 407.882 32.4C406.242 32.4 404.752 32.85 403.412 33.75C402.092 34.63 401.042 35.8 400.262 37.26C399.502 38.7 399.122 40.28 399.122 42C399.122 43.7 399.512 45.28 400.292 46.74C401.072 48.18 402.122 49.34 403.442 50.22C404.782 51.1 406.262 51.54 407.882 51.54C409.122 51.54 410.302 51.26 411.422 50.7C412.542 50.14 413.492 49.4 414.272 48.48ZM452.491 41.31V57H446.251V41.43C446.251 39.73 445.891 38.18 445.171 36.78C444.471 35.38 443.531 34.27 442.351 33.45C441.171 32.63 439.861 32.22 438.421 32.22C436.861 32.22 435.531 32.63 434.431 33.45C433.331 34.27 432.481 35.38 431.881 36.78C431.301 38.18 431.011 39.73 431.011 41.43V57H424.741V12H430.981V30.51C431.821 28.89 432.921 27.77 434.281 27.15C435.661 26.51 437.241 26.19 439.021 26.19C441.721 26.19 444.071 26.88 446.071 28.26C448.071 29.64 449.631 31.48 450.751 33.78C451.871 36.06 452.451 38.57 452.491 41.31ZM481.165 27H487.405V57H481.135L480.895 52.65C480.015 54.19 478.825 55.43 477.325 56.37C475.845 57.31 474.085 57.78 472.045 57.78C469.825 57.78 467.745 57.37 465.805 56.55C463.885 55.71 462.185 54.55 460.705 53.07C459.245 51.59 458.095 49.89 457.255 47.97C456.435 46.03 456.025 43.95 456.025 41.73C456.025 39.59 456.425 37.58 457.225 35.7C458.025 33.8 459.135 32.14 460.555 30.72C461.975 29.3 463.615 28.19 465.475 27.39C467.355 26.57 469.365 26.16 471.505 26.16C473.685 26.16 475.605 26.66 477.265 27.66C478.945 28.64 480.325 29.9 481.405 31.44L481.165 27ZM472.195 51.75C473.995 51.75 475.545 51.3 476.845 50.4C478.165 49.5 479.155 48.29 479.815 46.77C480.495 45.25 480.785 43.57 480.685 41.73C480.565 39.97 480.095 38.37 479.275 36.93C478.475 35.49 477.405 34.35 476.065 33.51C474.725 32.65 473.205 32.22 471.505 32.22C469.725 32.22 468.115 32.67 466.675 33.57C465.255 34.47 464.155 35.68 463.375 37.2C462.595 38.72 462.255 40.41 462.355 42.27C462.475 44.01 462.995 45.6 463.915 47.04C464.855 48.48 466.045 49.63 467.485 50.49C468.945 51.33 470.515 51.75 472.195 51.75ZM522.424 41.28V57H516.184V41.4C516.184 39.7 515.824 38.16 515.104 36.78C514.404 35.38 513.434 34.27 512.194 33.45C510.974 32.61 509.584 32.19 508.024 32.19C506.464 32.19 505.094 32.61 503.914 33.45C502.754 34.27 501.844 35.38 501.184 36.78C500.544 38.16 500.224 39.7 500.224 41.4V57H493.984V27H500.224V31.05C501.264 29.53 502.524 28.34 504.004 27.48C505.484 26.6 507.154 26.16 509.014 26.16C511.714 26.16 514.054 26.85 516.034 28.23C518.034 29.61 519.594 31.44 520.714 33.72C521.834 36 522.404 38.52 522.424 41.28ZM550.871 27H557.111V57.78C557.111 59.84 556.671 61.74 555.791 63.48C554.931 65.22 553.761 66.72 552.281 67.98C550.801 69.26 549.101 70.25 547.181 70.95C545.281 71.65 543.291 72 541.211 72C539.111 72 537.091 71.55 535.151 70.65C533.211 69.77 531.501 68.57 530.021 67.05C528.561 65.53 527.471 63.81 526.751 61.89L532.481 59.31C532.881 60.55 533.521 61.65 534.401 62.61C535.301 63.57 536.341 64.33 537.521 64.89C538.721 65.45 539.951 65.73 541.211 65.73C542.451 65.73 543.641 65.53 544.781 65.13C545.941 64.75 546.971 64.21 547.871 63.51C548.791 62.81 549.521 61.97 550.061 60.99C550.601 60.01 550.871 58.94 550.871 57.78V52.71C549.891 54.23 548.631 55.46 547.091 56.4C545.551 57.32 543.761 57.78 541.721 57.78C539.601 57.78 537.601 57.37 535.721 56.55C533.841 55.73 532.191 54.6 530.771 53.16C529.351 51.7 528.241 50.02 527.441 48.12C526.641 46.22 526.241 44.18 526.241 42C526.241 39.82 526.641 37.78 527.441 35.88C528.241 33.96 529.351 32.28 530.771 30.84C532.191 29.38 533.841 28.24 535.721 27.42C537.601 26.6 539.601 26.19 541.721 26.19C543.761 26.19 545.551 26.66 547.091 27.6C548.631 28.52 549.891 29.75 550.871 31.29V27ZM541.781 51.75C543.521 51.75 545.041 51.31 546.341 50.43C547.641 49.53 548.651 48.34 549.371 46.86C550.091 45.38 550.451 43.76 550.451 42C550.451 40.2 550.081 38.57 549.341 37.11C548.621 35.63 547.611 34.45 546.311 33.57C545.011 32.67 543.501 32.22 541.781 32.22C540.101 32.22 538.561 32.66 537.161 33.54C535.781 34.42 534.681 35.6 533.861 37.08C533.041 38.56 532.631 40.2 532.631 42C532.631 43.8 533.041 45.44 533.861 46.92C534.701 48.4 535.811 49.58 537.191 50.46C538.591 51.32 540.121 51.75 541.781 51.75ZM576.573 57.78C573.813 57.78 571.293 57.07 569.013 55.65C566.753 54.23 564.943 52.33 563.583 49.95C562.243 47.55 561.573 44.9 561.573 42C561.573 39.8 561.963 37.75 562.743 35.85C563.523 33.93 564.593 32.25 565.953 30.81C567.333 29.35 568.933 28.21 570.753 27.39C572.573 26.57 574.513 26.16 576.573 26.16C578.873 26.16 580.983 26.64 582.903 27.6C584.823 28.54 586.463 29.85 587.823 31.53C589.183 33.19 590.183 35.11 590.823 37.29C591.463 39.45 591.653 41.75 591.393 44.19H568.263C568.523 45.57 569.023 46.82 569.763 47.94C570.523 49.04 571.483 49.91 572.643 50.55C573.823 51.19 575.133 51.52 576.573 51.54C578.093 51.54 579.473 51.16 580.713 50.4C581.973 49.64 583.003 48.59 583.803 47.25L590.133 48.72C588.933 51.38 587.123 53.56 584.703 55.26C582.283 56.94 579.573 57.78 576.573 57.78ZM568.053 39.42H585.093C584.893 37.98 584.383 36.68 583.563 35.52C582.763 34.34 581.753 33.41 580.533 32.73C579.333 32.03 578.013 31.68 576.573 31.68C575.153 31.68 573.833 32.02 572.613 32.7C571.413 33.38 570.413 34.31 569.613 35.49C568.833 36.65 568.313 37.96 568.053 39.42Z" fill="#F85F68"/>
<path d="M0.497437 1.49756L70.4974 1.49756V71.4976H0.497437L0.497437 1.49756Z" fill="#F85F68"/>
<path d="M15.1394 58.2996L56.2994 17.1395M56.2994 17.1395L26.24 16.9201M56.2994 17.1395L56.5188 47.1989" stroke="white" stroke-width="9"/>
</svg>
